<?xml version="1.0" encoding="UTF-8" standalone="no"?>
<svg viewBox="0 0 48 48" xmlns="http://www.w3.org/2000/svg">
  <path
     fill="currentColor"
     d="M 9,2 C 7.338003,2 6,3.226503 6,4.75 v 38.5 C 6,44.773497 7.338003,46 9,46 h 30 c 1.661997,0 3,-1.226503 3,-2.75 V 4.75 C 42,3.226503 40.661997,2 39,2 Z M 8,4 h 4 V 8 H 8 Z m 6,0 H 34 V 16 H 14 Z m 22,0 h 4 V 8 H 36 Z M 8,10 h 4 v 4 H 8 Z m 28,0 h 4 v 4 H 36 Z M 8,16 h 4 v 4 H 8 Z m 28,0 h 4 v 4 H 36 Z M 14,18 H 34 V 30 H 14 Z m -6,4 h 4 v 4 H 8 Z m 28,0 h 4 v 4 H 36 Z M 8,28 h 4 v 4 H 8 Z m 28,0 h 4 v 4 H 36 Z M 14,32 H 34 V 44 H 14 Z m -6,2 h 4 v 4 H 8 Z m 28,0 h 4 v 4 H 36 Z M 8,40 h 4 v 4 H 8 Z m 28,0 h 4 v 4 h -4 z" />
</svg>
