<?xml version="1.0" standalone="no"?>
<!DOCTYPE svg PUBLIC "-//W3C//DTD SVG 20010904//EN"
 "http://www.w3.org/TR/2001/REC-SVG-20010904/DTD/svg10.dtd">
<svg version="1.0" xmlns="http://www.w3.org/2000/svg"
 viewBox="0 0 128.000000 128.000000"
 preserveAspectRatio="xMidYMid meet">
<metadata>
Created by potrace 1.16, written by Peter Selinger 2001-2019
</metadata>
<g transform="translate(0.000000,128.000000) scale(0.100000,-0.100000)"
fill="currentColor" stroke="none">
<path d="M95 1255 l-25 -24 0 -588 c1 -446 4 -592 13 -604 29 -38 43 -39 557
-39 528 0 547 2 564 45 3 9 6 279 6 599 0 575 0 584 -21 610 l-20 26 -525 0
-525 0 -24 -25z m175 -110 l0 -65 -60 0 -60 0 0 65 0 65 60 0 60 0 0 -65z
m665 -50 l0 -110 -292 -3 -293 -2 0 115 0 115 293 -2 292 -3 0 -110z m200 50
l0 -60 -62 -3 -63 -3 0 66 0 66 63 -3 62 -3 0 -60z m-865 -200 l0 -65 -60 0
-60 0 0 65 0 65 60 0 60 0 0 -65z m865 0 l0 -60 -62 -3 -63 -3 0 66 0 66 63
-3 62 -3 0 -60z m-197 -302 l2 -263 -295 0 -295 0 0 265 0 265 293 -2 292 -3
3 -262z m-668 102 l0 -65 -60 0 -60 0 0 65 0 65 60 0 60 0 0 -65z m868 -2 l3
-63 -66 0 -65 0 0 58 c0 32 3 62 7 66 4 4 32 6 63 4 l55 -3 3 -62z m-868 -203
l0 -60 -60 0 -60 0 0 60 0 60 60 0 60 0 0 -60z m870 0 l0 -60 -65 0 -65 0 0
60 0 60 65 0 65 0 0 -60z m-870 -200 l0 -60 -60 0 -60 0 0 60 0 60 60 0 60 0
0 -60z m870 0 l0 -60 -65 0 -65 0 0 60 0 60 65 0 65 0 0 -60z m-200 -150 l0
-110 -295 0 -295 0 0 110 0 110 295 0 295 0 0 -110z m-670 -50 l0 -60 -60 0
-60 0 0 60 0 60 60 0 60 0 0 -60z m870 0 l0 -60 -65 0 -65 0 0 60 0 60 65 0
65 0 0 -60z"/>
</g>
</svg>
